<svg width="25" height="24" viewBox="0 0 25 24" fill="none" xmlns="http://www.w3.org/2000/svg">
<path d="M12.2947 2C15.026 2 15.3668 2.01 16.4384 2.06C17.509 2.11 18.2378 2.277 18.8792 2.525C19.5427 2.779 20.1016 3.123 20.6605 3.678C21.1717 4.1779 21.5672 4.78259 21.8196 5.45C22.0679 6.087 22.2368 6.813 22.2871 7.878C22.3343 8.944 22.3474 9.283 22.3474 12C22.3474 14.717 22.3373 15.056 22.2871 16.122C22.2368 17.187 22.0679 17.912 21.8196 18.55C21.568 19.2178 21.1723 19.8226 20.6605 20.322C20.1579 20.8303 19.55 21.2238 18.8792 21.475C18.2389 21.722 17.509 21.89 16.4384 21.94C15.3668 21.987 15.026 22 12.2947 22C9.56343 22 9.22265 21.99 8.15104 21.94C7.08043 21.89 6.35162 21.722 5.71026 21.475C5.03907 21.2245 4.43109 20.8309 3.92894 20.322C3.41766 19.8222 3.02212 19.2175 2.76987 18.55C2.52056 17.913 2.35268 17.187 2.30242 16.122C2.25517 15.056 2.2421 14.717 2.2421 12C2.2421 9.283 2.25216 8.944 2.30242 7.878C2.35268 6.812 2.52056 6.088 2.76987 5.45C3.02142 4.78218 3.41706 4.17732 3.92894 3.678C4.43124 3.16923 5.03918 2.77573 5.71026 2.525C6.35162 2.277 7.07943 2.11 8.15104 2.06C9.22265 2.013 9.56343 2 12.2947 2ZM12.2947 7C10.9617 7 9.68321 7.52678 8.74059 8.46447C7.79798 9.40215 7.26842 10.6739 7.26842 12C7.26842 13.3261 7.79798 14.5979 8.74059 15.5355C9.68321 16.4732 10.9617 17 12.2947 17C13.6278 17 14.9063 16.4732 15.8489 15.5355C16.7915 14.5979 17.321 13.3261 17.321 12C17.321 10.6739 16.7915 9.40215 15.8489 8.46447C14.9063 7.52678 13.6278 7 12.2947 7ZM18.8289 6.75C18.8289 6.41848 18.6966 6.10054 18.4609 5.86612C18.2252 5.6317 17.9056 5.5 17.5724 5.5C17.2391 5.5 16.9195 5.6317 16.6838 5.86612C16.4482 6.10054 16.3158 6.41848 16.3158 6.75C16.3158 7.08152 16.4482 7.39946 16.6838 7.63388C16.9195 7.8683 17.2391 8 17.5724 8C17.9056 8 18.2252 7.8683 18.4609 7.63388C18.6966 7.39946 18.8289 7.08152 18.8289 6.75ZM12.2947 9C13.0946 9 13.8616 9.31607 14.4272 9.87868C14.9928 10.4413 15.3105 11.2044 15.3105 12C15.3105 12.7956 14.9928 13.5587 14.4272 14.1213C13.8616 14.6839 13.0946 15 12.2947 15C11.4949 15 10.7278 14.6839 10.1622 14.1213C9.59668 13.5587 9.27895 12.7956 9.27895 12C9.27895 11.2044 9.59668 10.4413 10.1622 9.87868C10.7278 9.31607 11.4949 9 12.2947 9Z" fill="white"/>
</svg>
