<svg width="21" height="18" viewBox="0 0 21 18" fill="none" xmlns="http://www.w3.org/2000/svg">
<path d="M20.9734 2.65593C20.2059 2.99362 19.3921 3.2154 18.5587 3.31393C19.4371 2.79136 20.0945 1.96894 20.4084 0.999927C19.5841 1.48793 18.6804 1.82993 17.7385 2.01493C17.1057 1.34151 16.2671 0.89489 15.3529 0.744511C14.4387 0.594133 13.5002 0.748418 12.6832 1.18338C11.8663 1.61834 11.2167 2.30961 10.8354 3.14972C10.4542 3.98983 10.3626 4.93171 10.5749 5.82893C8.9033 5.74558 7.26796 5.31345 5.7751 4.56059C4.28224 3.80773 2.96523 2.75097 1.90958 1.45893C1.53591 2.09738 1.33955 2.82315 1.3406 3.56193C1.3406 5.01193 2.08248 6.29293 3.21039 7.04293C2.5429 7.02202 1.89011 6.84271 1.30642 6.51993V6.57193C1.30662 7.53763 1.64255 8.47354 2.25725 9.22099C2.87194 9.96843 3.72758 10.4814 4.67908 10.6729C4.05945 10.84 3.40974 10.8646 2.77913 10.7449C3.0474 11.5762 3.57028 12.3031 4.27455 12.824C4.97882 13.3449 5.82923 13.6337 6.70669 13.6499C5.83461 14.3313 4.83608 14.8349 3.76819 15.1321C2.7003 15.4293 1.584 15.5142 0.483109 15.3819C2.40487 16.6114 4.64198 17.264 6.92685 17.2619C14.6603 17.2619 18.8895 10.8889 18.8895 5.36193C18.8895 5.18193 18.8845 4.99993 18.8764 4.82193C19.6996 4.23009 20.41 3.49695 20.9744 2.65693L20.9734 2.65593Z" fill="white"/>
</svg>
