<svg width="21" height="16" viewBox="0 0 21 16" fill="none" xmlns="http://www.w3.org/2000/svg">
<path d="M20.1195 2.498C20.5789 4.28 20.5789 8 20.5789 8C20.5789 8 20.5789 11.72 20.1195 13.502C19.8642 14.487 19.1173 15.262 18.1713 15.524C16.4533 16 10.5263 16 10.5263 16C10.5263 16 4.6023 16 2.88129 15.524C1.93132 15.258 1.18541 14.484 0.933091 13.502C0.473686 11.72 0.473686 8 0.473686 8C0.473686 8 0.473686 4.28 0.933091 2.498C1.18843 1.513 1.93534 0.738 2.88129 0.476C4.6023 -1.78814e-07 10.5263 0 10.5263 0C10.5263 0 16.4533 -1.78814e-07 18.1713 0.476C19.1213 0.742 19.8672 1.516 20.1195 2.498ZM8.51579 11.5L14.5474 8L8.51579 4.5V11.5Z" fill="white"/>
</svg>
